<svg xmlns="http://www.w3.org/2000/svg" width="497" height="126" viewBox="0 0 497 126" fill="none"><path d="M79.6155 27.1689V97.6502H53.7405L0 27.1689H20.1737L62.9912 84.2627V27.1689H79.6155Z" fill="#89B2AA"></path><path d="M463.596 126C457.573 126 452.399 125.193 448.074 123.58C443.75 121.996 440.275 119.865 437.649 117.186C435.024 114.506 433.202 111.538 432.182 108.28L447.287 104.672C447.966 106.042 448.955 107.397 450.252 108.737C451.549 110.107 453.294 111.233 455.488 112.116C457.712 113.03 460.507 113.486 463.874 113.486C468.631 113.486 472.569 112.345 475.689 110.061C478.808 107.808 480.368 104.094 480.368 98.9175V85.6274H479.534C478.669 87.3324 477.403 89.0831 475.735 90.8795C474.098 92.6759 471.92 94.183 469.202 95.4009C466.515 96.6188 463.132 97.2277 459.055 97.2277C453.588 97.2277 448.63 95.9641 444.182 93.437C439.765 90.8795 436.244 87.0736 433.619 82.0194C431.024 76.9347 429.727 70.5713 429.727 62.929C429.727 55.2259 431.024 48.7255 433.619 43.4277C436.244 38.0994 439.781 34.0652 444.229 31.325C448.677 28.5543 453.634 27.1689 459.102 27.1689C463.271 27.1689 466.7 27.8692 469.387 29.2698C472.106 30.6399 474.268 32.2993 475.874 34.2479C477.48 36.1661 478.7 37.9777 479.534 39.6827H480.461V28.0824H497.002V99.3742C497.002 105.372 495.55 110.335 492.646 114.263C489.743 118.191 485.774 121.129 480.739 123.077C475.704 125.026 469.99 126 463.596 126ZM463.735 84.2572C467.287 84.2572 470.314 83.4047 472.816 81.6997C475.318 79.9946 477.218 77.5437 478.515 74.3467C479.812 71.1498 480.461 67.3134 480.461 62.8377C480.461 58.4229 479.812 54.5561 478.515 51.2374C477.249 47.9186 475.364 45.3459 472.862 43.519C470.391 41.6618 467.349 40.7331 463.735 40.7331C459.997 40.7331 456.878 41.6922 454.376 43.6104C451.874 45.5285 449.989 48.1622 448.723 51.5114C447.457 54.8301 446.823 58.6056 446.823 62.8377C446.823 67.1307 447.457 70.891 448.723 74.1184C450.02 77.3153 451.92 79.812 454.422 81.6083C456.955 83.3743 460.059 84.2572 463.735 84.2572Z" fill="#89B2AA"></path><path d="M374.455 56.4273V97.6496H357.672V27.2969H373.714V39.2514H374.548C376.186 35.3124 378.798 32.1825 382.383 29.8619C386 27.5412 390.466 26.3809 395.782 26.3809C400.697 26.3809 404.978 27.419 408.625 29.4954C412.303 31.5718 415.147 34.5795 417.156 38.5185C419.196 42.4575 420.2 47.2363 420.169 52.8547V97.6496H403.386V55.4197C403.386 50.7173 402.15 47.0378 399.677 44.3813C397.235 41.7247 393.851 40.3964 389.523 40.3964C386.587 40.3964 383.975 41.0377 381.688 42.3201C379.432 43.5721 377.654 45.3889 376.356 47.7706C375.089 50.1524 374.455 53.0379 374.455 56.4273Z" fill="#89B2AA"></path><path d="M306.682 97.6498C302.091 97.6498 297.956 96.8456 294.277 95.2372C290.629 93.5979 287.736 91.1852 285.598 87.9993C283.491 84.8134 282.438 80.8852 282.438 76.2146C282.438 72.1936 283.192 68.8685 284.702 66.2394C286.211 63.6102 288.271 61.5069 290.881 59.9295C293.491 58.352 296.431 57.1611 299.701 56.3569C303.003 55.5218 306.415 54.9186 309.937 54.5475C314.182 54.1144 317.625 53.7278 320.267 53.3875C322.908 53.0164 324.826 52.4596 326.021 51.7173C327.248 50.944 327.861 49.7531 327.861 48.1447V47.8664C327.861 44.3712 326.807 41.6647 324.7 39.747C322.594 37.8292 319.559 36.8704 315.597 36.8704C311.415 36.8704 308.097 37.7674 305.644 39.5614C303.223 41.3554 301.588 43.4742 300.739 45.9177L284.796 43.6907C286.054 39.3603 288.129 35.7414 291.022 32.8339C293.915 29.8954 297.453 27.6993 301.635 26.2456C305.817 24.7609 310.44 24.0186 315.503 24.0186C318.993 24.0186 322.468 24.4207 325.927 25.2249C329.386 26.0291 332.546 27.3591 335.408 29.215C338.269 31.0399 340.565 33.5298 342.294 36.6848C344.055 39.8398 344.936 43.7835 344.936 48.5159V97.6498H328.521V86.4219H327.955C326.917 88.4014 325.455 90.2573 323.568 91.9894C321.713 93.6906 319.37 95.0671 316.54 96.1187C313.742 97.1395 310.456 97.6498 306.682 97.6498ZM311.116 85.3083C314.543 85.3083 317.515 84.6433 320.031 83.3133C322.546 81.9523 324.48 80.1583 325.832 77.9313C327.216 75.7043 327.908 73.2762 327.908 70.647V62.2493C327.373 62.6823 326.461 63.0844 325.172 63.4556C323.914 63.8268 322.499 64.1515 320.927 64.4299C319.355 64.7083 317.798 64.9557 316.257 65.1723C314.716 65.3888 313.38 65.5744 312.248 65.729C309.701 66.0693 307.421 66.626 305.409 67.3993C303.396 68.1726 301.808 69.2551 300.645 70.647C299.481 72.008 298.899 73.7711 298.899 75.9363C298.899 79.0294 300.047 81.3646 302.343 82.9421C304.638 84.5196 307.563 85.3083 311.116 85.3083Z" fill="#89B2AA"></path><path d="M279.077 27.6918V40.4446H237.852V27.6918H279.077ZM248.158 97.65V21.0877C248.158 16.3813 249.126 12.4643 251.064 9.33687C253.031 6.2094 255.664 3.87139 258.963 2.32283C262.263 0.774278 265.925 0 269.951 0C272.796 0 275.323 0.22773 277.533 0.683191C279.742 1.13865 281.377 1.54856 282.436 1.91292L279.167 14.6657C278.471 14.4532 277.593 14.2406 276.534 14.0281C275.475 13.7852 274.294 13.6637 272.993 13.6637C269.936 13.6637 267.771 14.4076 266.5 15.8955C265.259 17.3529 264.639 19.448 264.639 22.1808V97.65H248.158Z" fill="#89B2AA"></path><path d="M231.482 27.7091V40.633L190.082 40.633V27.7091L231.482 27.7091ZM199.989 9.84375H216.44V75.6075C216.44 77.8269 216.773 79.5296 217.44 80.7153C218.137 81.8707 219.045 82.6612 220.166 83.0868C221.287 83.5125 222.53 83.7253 223.893 83.7253C224.923 83.7253 225.862 83.6493 226.71 83.4973C227.589 83.3452 228.256 83.2084 228.71 83.0868L231.482 95.9933C230.604 96.2973 229.346 96.6318 227.71 96.9966C226.104 97.3615 224.135 97.5743 221.802 97.6351C217.682 97.7567 213.971 97.1334 210.668 95.7653C207.366 94.3667 204.745 92.208 202.807 89.2892C200.898 86.3704 199.959 82.722 199.989 78.3438V9.84375Z" fill="#89B2AA"></path><path d="M181.325 4.72461V97.6496H165.004V4.72461H181.325Z" fill="#89B2AA"></path><path d="M122.211 97.65C115.275 97.65 109.263 96.1507 104.176 93.1522C99.0894 90.1536 95.1432 85.9586 92.3378 80.5673C89.5631 75.176 88.1758 68.8759 88.1758 61.6673C88.1758 54.4586 89.5631 48.1435 92.3378 42.7219C95.1432 37.3002 99.0894 33.0901 104.176 30.0916C109.263 27.093 115.275 25.5938 122.211 25.5938C129.148 25.5938 135.16 27.093 140.247 30.0916C145.333 33.0901 149.264 37.3002 152.039 42.7219C154.844 48.1435 156.247 54.4586 156.247 61.6673C156.247 68.8759 154.844 75.176 152.039 80.5673C149.264 85.9586 145.333 90.1536 140.247 93.1522C135.16 96.1507 129.148 97.65 122.211 97.65ZM122.304 84.4745C126.065 84.4745 129.21 83.4598 131.738 81.4305C134.266 79.3709 136.146 76.6147 137.379 73.1618C138.643 69.7089 139.275 65.8623 139.275 61.6219C139.275 57.3512 138.643 53.4894 137.379 50.0365C136.146 46.5534 134.266 43.782 131.738 41.7224C129.21 39.6627 126.065 38.6329 122.304 38.6329C118.45 38.6329 115.244 39.6627 112.685 41.7224C110.157 43.782 108.261 46.5534 106.997 50.0365C105.764 53.4894 105.147 57.3512 105.147 61.6219C105.147 65.8623 105.764 69.7089 106.997 73.1618C108.261 76.6147 110.157 79.3709 112.685 81.4305C115.244 83.4598 118.45 84.4745 122.304 84.4745Z" fill="#89B2AA"></path></svg>